<svg width="798" height="128" viewBox="0 0 798 128" fill="none" xmlns="http://www.w3.org/2000/svg">
<path d="M661.798 63.7614C661.798 24.3167 692.814 2.23441 730.742 2.23441C766.141 2.23441 795.134 23.6424 797.831 53.4788H761.421C759.567 42.6905 747.261 32.0708 730.742 32.0708C713.716 32.0708 697.365 42.6905 697.365 63.5929C697.365 85.1695 713.716 95.6207 730.742 95.6207C747.261 95.6207 759.567 85.0009 761.421 73.8755H798C795.134 106.915 766.141 125.457 730.742 125.457C692.814 125.457 661.798 101.352 661.798 63.7614Z" fill="white"/>
<path d="M615.376 4.76303H650.943V122.76H615.376V4.76303Z" fill="white"/>
<path d="M604.519 4.76303V122.76H568.783V76.9098H513.324V122.76H477.756V4.76303H513.324V48.2534H568.783V4.76303H604.519Z" fill="white"/>
<path d="M467.017 4.76303V33.4195H422.515V122.76H386.779V33.4195H342.277V4.76303H467.017Z" fill="white"/>
<path d="M295.855 4.76303H331.423V122.76H295.855V4.76303Z" fill="white"/>
<path d="M216.685 93.4293L285.124 93.2607V122.76H181.118V4.9315H216.685V93.4293Z" fill="white"/>
<path d="M0 31.5652C24.7794 32.0709 35.5677 24.1483 36.0734 4.76303H68.1012V30.3853C68.1012 33.4195 66.0784 34.9366 65.067 35.6108L35.5677 57.5246C34.8934 58.0303 31.1849 61.0645 26.1279 61.0645H0V31.5652ZM141.596 31.5652V61.0645H115.469C110.412 61.0645 106.703 58.0303 106.029 57.5246L76.5295 35.6108C75.6867 34.9366 73.4953 33.4195 73.4953 30.3853V4.76303H105.523C106.029 24.1483 116.817 32.0709 141.596 31.5652ZM0 95.9579V66.4586H26.1279C31.3535 66.4586 34.8934 69.4928 35.5677 69.9985L65.067 91.9123C65.9098 92.5866 68.1012 93.9351 68.1012 97.1379V122.76H36.0734C35.5677 103.375 24.7794 95.4522 0 95.9579ZM141.596 95.9579C116.817 95.4522 106.029 103.375 105.523 122.76H73.4953V97.1379C73.4953 93.9351 75.6867 92.5866 76.5295 91.9123L106.029 69.9985C106.703 69.4928 110.412 66.4586 115.469 66.4586H141.596V95.9579Z" fill="white"/>
</svg>
