<?xml version="1.0" encoding="UTF-8"?>
<svg viewBox="0 0 59 8" xmlns="http://www.w3.org/2000/svg">
  <path
    d="M3.07472 5.13635H3.80527V6.43245H3.07472V5.13635ZM6.87999 6.42845H6.14944V2.94419H0.730548V6.42845H0V2.21613H6.87999V6.42845ZM5.41488 3.67224L5.41087 6.42845H4.68032V4.4003H2.19566V6.42845H1.46511V3.67224H5.41488ZM10.8017 6.32844C10.403 6.32844 10.0578 6.23909 9.76606 6.06042C9.47437 5.88174 9.24959 5.63505 9.09171 5.32037C8.93382 5.00834 8.85488 4.64698 8.85488 4.23628C8.85488 3.82291 8.93649 3.45889 9.09973 3.1442C9.26029 2.83218 9.48641 2.58816 9.7781 2.41215C10.0698 2.2388 10.411 2.15213 10.8017 2.15213C11.1977 2.15213 11.5415 2.24014 11.8333 2.41615C12.125 2.59482 12.3511 2.84151 12.5116 3.1562C12.6695 3.46823 12.7485 3.82825 12.7485 4.23628C12.7485 4.64965 12.6682 5.01234 12.5076 5.32437C12.3471 5.63905 12.121 5.88441 11.8293 6.06042C11.5375 6.23909 11.195 6.32844 10.8017 6.32844ZM10.8017 5.60439C11.1817 5.60439 11.4653 5.47771 11.6526 5.22436C11.84 4.96834 11.9336 4.63897 11.9336 4.23628C11.9336 3.82291 11.8386 3.49223 11.6486 3.24421C11.4587 2.99619 11.1763 2.87218 10.8017 2.87218C10.5448 2.87218 10.332 2.93085 10.1634 3.0482C9.99753 3.16287 9.87444 3.32288 9.79416 3.52823C9.71388 3.73091 9.67374 3.96692 9.67374 4.23628C9.67374 4.64965 9.76874 4.98167 9.95873 5.23236C10.1514 5.48038 10.4324 5.60439 10.8017 5.60439ZM13.5553 7.97656V2.26014H14.2377V2.61616C14.3072 2.54416 14.3822 2.48015 14.4624 2.42415C14.7166 2.2428 15.0311 2.15213 15.4057 2.15213C15.7803 2.15213 16.1029 2.2428 16.3731 2.42415C16.6433 2.60549 16.8521 2.85351 16.9993 3.16821C17.1465 3.48289 17.2201 3.83892 17.2201 4.23628C17.2201 4.63097 17.1465 4.987 16.9993 5.30436C16.8548 5.61905 16.6488 5.86841 16.3811 6.05242C16.1109 6.23643 15.7911 6.32844 15.4218 6.32844C15.0418 6.32844 14.7233 6.23643 14.4664 6.05242C14.4183 6.01775 14.3714 5.98042 14.326 5.94041V7.97656H13.5553ZM15.3174 5.63639C15.561 5.63639 15.763 5.57371 15.9235 5.44838C16.0841 5.32303 16.2045 5.15501 16.2848 4.94434C16.3651 4.73365 16.4052 4.49763 16.4052 4.23628C16.4052 3.9776 16.3651 3.74291 16.2848 3.53223C16.2045 3.32155 16.0828 3.15486 15.9195 3.0322C15.7562 2.90685 15.5462 2.84418 15.2893 2.84418C15.0512 2.84418 14.8531 2.90285 14.6952 3.02019C14.54 3.13753 14.425 3.30155 14.35 3.51223C14.2751 3.72025 14.2377 3.96159 14.2377 4.23628C14.2377 4.51097 14.2751 4.75232 14.35 4.96034C14.4223 5.17101 14.5387 5.33637 14.6993 5.45638C14.8571 5.57638 15.0632 5.63639 15.3174 5.63639ZM19.789 6.32844C19.3956 6.32844 19.0504 6.24176 18.7534 6.06842C18.4537 5.89774 18.2208 5.65772 18.055 5.34837C17.8917 5.039 17.8101 4.68032 17.8101 4.27229C17.8101 3.84026 17.8904 3.46556 18.0509 3.1482C18.2142 2.83084 18.4416 2.58549 18.7333 2.41215C19.025 2.2388 19.3648 2.15213 19.7529 2.15213C20.157 2.15213 20.5008 2.24547 20.7845 2.43215C21.0708 2.61882 21.2835 2.88418 21.4227 3.22821C21.5645 3.57224 21.6207 3.9816 21.5913 4.4563H18.653H18.637V4.4843C18.6664 4.80166 18.7587 5.05635 18.914 5.24836C19.1093 5.48571 19.3889 5.60572 19.7529 5.60839C19.9937 5.60839 20.2011 5.55371 20.3751 5.44437C20.5517 5.33503 20.6881 5.17901 20.7845 4.97634L21.5391 5.21236C21.3839 5.56704 21.1498 5.84173 20.8367 6.03642C20.5236 6.23109 20.1744 6.32844 19.789 6.32844ZM20.5597 3.1602C20.3884 2.93885 20.1289 2.82818 19.781 2.82818C19.3983 2.82818 19.1093 2.94952 18.914 3.19221C18.7828 3.35755 18.6959 3.57357 18.653 3.84026V3.86026H20.8005C20.7657 3.5669 20.6854 3.32288 20.5597 3.1602ZM22.3018 6.21643V2.26014H22.9882V2.73617C23.0978 2.59749 23.2303 2.48015 23.3856 2.38415C23.6397 2.23214 23.9448 2.15613 24.3007 2.15613C24.5764 2.15613 24.8078 2.20013 24.9952 2.28814C25.1798 2.37615 25.331 2.49082 25.4487 2.63217C25.5638 2.77618 25.6522 2.93219 25.7137 3.1002C25.7752 3.26821 25.8167 3.43356 25.8381 3.59624C25.8595 3.75625 25.8702 3.89759 25.8702 4.02027V6.22043H25.0915V4.27229C25.0915 4.11761 25.0795 3.95892 25.0554 3.79625C25.0286 3.63624 24.9791 3.48556 24.9069 3.34422C24.8346 3.20554 24.733 3.09353 24.6018 3.00819C24.4706 2.92285 24.2994 2.88018 24.088 2.88018C23.9515 2.88018 23.8218 2.90285 23.6986 2.94819C23.5755 2.99352 23.4685 3.06553 23.3775 3.16421C23.2865 3.26554 23.2143 3.39755 23.1608 3.56023C23.1073 3.72558 23.0805 3.92559 23.0805 4.16028V6.21643H22.3018ZM26.5325 2.87618V2.26014H27.1908V2.12013C27.1908 2.02145 27.1948 1.91477 27.2029 1.8001C27.2109 1.6881 27.2323 1.57609 27.2671 1.46408C27.3019 1.35207 27.3621 1.24939 27.4477 1.15606C27.5468 1.04672 27.6564 0.969372 27.7769 0.924039C27.8973 0.876036 28.0164 0.849367 28.1341 0.844032C28.2545 0.836032 28.3642 0.832031 28.4633 0.832031H28.965V1.46408H28.5034C28.3215 1.46141 28.185 1.50542 28.094 1.59609C28.0057 1.68409 27.9615 1.81076 27.9615 1.97612V2.26014H28.965V2.87618H27.9615V6.21643H27.1908V2.87618L26.5325 2.87618ZM31.1286 6.32844C30.7325 6.32844 30.3887 6.23909 30.097 6.06042C29.8052 5.88174 29.5805 5.63505 29.4226 5.32037C29.2648 5.00834 29.1858 4.64698 29.1858 4.23628C29.1858 3.82291 29.2661 3.45889 29.4266 3.1442C29.5899 2.83218 29.8173 2.58816 30.109 2.41215C30.4007 2.2388 30.7405 2.15213 31.1286 2.15213C31.5272 2.15213 31.8724 2.24014 32.1642 2.41615C32.4559 2.59482 32.6807 2.84151 32.8385 3.1562C32.9991 3.46823 33.0794 3.82825 33.0794 4.23628C33.0794 4.64965 32.9991 5.01234 32.8385 5.32437C32.678 5.63905 32.4519 5.88441 32.1602 6.06042C31.8684 6.23909 31.5246 6.32844 31.1286 6.32844ZM31.1286 5.60439C31.5086 5.60439 31.7922 5.47771 31.9795 5.22436C32.1669 4.96834 32.2605 4.63897 32.2605 4.23628C32.2605 3.82291 32.1655 3.49223 31.9755 3.24421C31.7855 2.99619 31.5032 2.87218 31.1286 2.87218C30.8717 2.87218 30.6602 2.93085 30.4943 3.0482C30.3258 3.16287 30.2013 3.32288 30.121 3.52823C30.0408 3.73091 30.0006 3.96692 30.0006 4.23628C30.0006 4.64965 30.0957 4.98167 30.2856 5.23236C30.4783 5.48038 30.7593 5.60439 31.1286 5.60439ZM33.8862 2.26014H34.5726V2.89219C34.602 2.84151 34.6328 2.79218 34.6649 2.74417C34.7452 2.64017 34.8362 2.55349 34.9378 2.48416C35.0395 2.40948 35.1519 2.35215 35.275 2.31214C35.3981 2.27214 35.5252 2.24814 35.6563 2.24014C35.7848 2.23214 35.9092 2.2388 36.0296 2.26014V2.97619C35.9012 2.94419 35.758 2.93485 35.6001 2.94819C35.4423 2.96419 35.2964 3.01485 35.1626 3.1002C35.0369 3.18021 34.9378 3.27754 34.8656 3.39222C34.7933 3.50689 34.7412 3.6349 34.709 3.77625C34.6769 3.91492 34.6609 4.06293 34.6609 4.22028V6.21643H33.8862V2.26014ZM36.2865 2.87618V2.26014H37.0492V1.16006H37.8199V2.26014H39V2.87618H37.8199V4.62431C37.8199 4.78166 37.8226 4.919 37.8279 5.03634C37.8306 5.15368 37.856 5.25236 37.9042 5.33237C37.9898 5.48438 38.129 5.57104 38.3216 5.59239C38.5143 5.61372 38.7404 5.60572 39 5.56838V6.21643C38.7511 6.2671 38.5063 6.28844 38.2654 6.28044C38.0246 6.27244 37.8106 6.22576 37.6232 6.14043C37.4332 6.05508 37.29 5.92041 37.1937 5.7364C37.1081 5.57371 37.0625 5.40703 37.0572 5.23636C37.0519 5.06835 37.0492 4.87633 37.0492 4.66032V2.87618H36.2865Z"
    fill="white"
  />
  <path
    d="M41.1908 6.24209L42.0098 1.56609H43.4798C44.1565 1.56609 44.6722 1.72709 45.0268 2.04909C45.3815 2.37109 45.5588 2.85176 45.5588 3.49109C45.5588 4.38709 45.3208 5.07076 44.8448 5.54209C44.3735 6.00876 43.6922 6.24209 42.8008 6.24209H41.1908ZM41.6668 5.87809H42.7728C43.5568 5.87809 44.1448 5.68209 44.5368 5.29009C44.9335 4.89343 45.1318 4.29609 45.1318 3.49809C45.1318 2.92876 44.9872 2.52509 44.6978 2.28709C44.4085 2.04909 43.9745 1.93009 43.3958 1.93009H42.3598L41.6668 5.87809ZM47.9666 6.31209C47.5839 6.31209 47.2409 6.23043 46.9376 6.06709C46.6389 5.90376 46.4032 5.67276 46.2306 5.37409C46.0626 5.07543 45.9786 4.72543 45.9786 4.32409C45.9786 3.74543 46.0929 3.24609 46.3216 2.82609C46.5549 2.40143 46.8746 2.07476 47.2806 1.84609C47.6866 1.61276 48.1509 1.49609 48.6736 1.49609C49.0562 1.49609 49.3969 1.58009 49.6956 1.74809C49.9989 1.91143 50.2369 2.14243 50.4096 2.44109C50.5822 2.73976 50.6686 3.08976 50.6686 3.49109C50.6686 4.06976 50.5542 4.57143 50.3256 4.99609C50.0969 5.41609 49.7796 5.74043 49.3736 5.96909C48.9676 6.19776 48.4986 6.31209 47.9666 6.31209ZM47.9946 5.94109C48.4286 5.94109 48.8136 5.84309 49.1496 5.64709C49.4902 5.45109 49.7562 5.17109 49.9476 4.80709C50.1436 4.44309 50.2416 4.00676 50.2416 3.49809C50.2416 3.15743 50.1739 2.86576 50.0386 2.62309C49.9079 2.38043 49.7212 2.19376 49.4786 2.06309C49.2406 1.93243 48.9629 1.86709 48.6456 1.86709C48.2116 1.86709 47.8242 1.96509 47.4836 2.16109C47.1476 2.35709 46.8816 2.63709 46.6856 3.00109C46.4942 3.36509 46.3986 3.80376 46.3986 4.31709C46.3986 4.65309 46.4639 4.94243 46.5946 5.18509C46.7299 5.42776 46.9166 5.61443 47.1546 5.74509C47.3972 5.87576 47.6772 5.94109 47.9946 5.94109ZM53.0785 6.31209C52.6958 6.31209 52.3528 6.23043 52.0495 6.06709C51.7508 5.90376 51.5152 5.67276 51.3425 5.37409C51.1745 5.07543 51.0905 4.72543 51.0905 4.32409C51.0905 3.74543 51.2048 3.24609 51.4335 2.82609C51.6668 2.40143 51.9865 2.07476 52.3925 1.84609C52.7985 1.61276 53.2628 1.49609 53.7855 1.49609C54.0795 1.49609 54.3572 1.54509 54.6185 1.64309C54.8798 1.74109 55.1155 1.87876 55.3255 2.05609L55.0945 2.34309C54.9265 2.20309 54.7305 2.08876 54.5065 2.00009C54.2872 1.91143 54.0375 1.86709 53.7575 1.86709C53.3235 1.86709 52.9362 1.96509 52.5955 2.16109C52.2595 2.35709 51.9935 2.63709 51.7975 3.00109C51.6062 3.36509 51.5105 3.80376 51.5105 4.31709C51.5105 4.65309 51.5758 4.94243 51.7065 5.18509C51.8418 5.42776 52.0285 5.61443 52.2665 5.74509C52.5092 5.87576 52.7892 5.94109 53.1065 5.94109C53.3865 5.94109 53.6432 5.90376 53.8765 5.82909C54.1098 5.74976 54.3338 5.62843 54.5485 5.46509L54.6885 5.80109C54.4598 5.97843 54.2125 6.10909 53.9465 6.19309C53.6805 6.27243 53.3912 6.31209 53.0785 6.31209ZM56.7183 6.31209C56.4149 6.31209 56.1303 6.25843 55.8643 6.15109C55.5983 6.03909 55.3579 5.86643 55.1433 5.63309L55.3883 5.33909C55.6123 5.54909 55.8293 5.70309 56.0393 5.80109C56.2539 5.89443 56.4896 5.94109 56.7463 5.94109C57.0263 5.94109 57.2713 5.89909 57.4813 5.81509C57.6959 5.73109 57.8639 5.60743 57.9853 5.44409C58.1066 5.28076 58.1673 5.08009 58.1673 4.84209C58.1673 4.65076 58.1159 4.49443 58.0133 4.37309C57.9106 4.25176 57.7543 4.17009 57.5443 4.12809L56.6973 3.96009C56.3706 3.89476 56.1303 3.77343 55.9763 3.59609C55.8269 3.41876 55.7523 3.20409 55.7523 2.95209C55.7523 2.67676 55.8199 2.42943 55.9553 2.21009C56.0906 1.99076 56.2843 1.81809 56.5363 1.69209C56.7929 1.56143 57.0986 1.49609 57.4533 1.49609C57.7286 1.49609 57.9993 1.54509 58.2653 1.64309C58.5313 1.73643 58.7576 1.88109 58.9443 2.07709L58.6993 2.37109C58.5406 2.22176 58.3563 2.10043 58.1463 2.00709C57.9409 1.91376 57.7123 1.86709 57.4603 1.86709C57.0683 1.86709 56.7556 1.96043 56.5223 2.14709C56.2936 2.33376 56.1793 2.58809 56.1793 2.91009C56.1793 3.08743 56.2329 3.23209 56.3403 3.34409C56.4476 3.45609 56.6086 3.53309 56.8233 3.57509L57.6633 3.74309C57.8826 3.78509 58.0599 3.85743 58.1953 3.96009C58.3306 4.06276 58.4309 4.18643 58.4963 4.33109C58.5616 4.47576 58.5943 4.63209 58.5943 4.80009C58.5943 5.10809 58.5173 5.37643 58.3633 5.60509C58.2093 5.82909 57.9923 6.00409 57.7123 6.13009C57.4323 6.25143 57.1009 6.31209 56.7183 6.31209Z"
    fill="#FC3627"
  />
</svg>